<svg xmlns="http://www.w3.org/2000/svg" width="438.533" height="438.533" viewBox="0 0 438.533 438.533"><path d="M409.133 109.203c-19.608-33.592-46.205-60.19-79.798-79.796C295.735 9.8 259.058 0 219.273 0c-39.78 0-76.47 9.8-110.063 29.407-33.595 19.604-60.192 46.2-79.8 79.796C9.8 142.8 0 179.49 0 219.267c0 39.78 9.804 76.463 29.407 110.062 19.607 33.59 46.204 60.188 79.8 79.797 33.596 19.605 70.282 29.407 110.062 29.407s76.47-9.802 110.064-29.407c33.593-19.602 60.19-46.206 79.795-79.798 19.602-33.597 29.402-70.285 29.402-110.063 0-39.782-9.8-76.472-29.4-110.064zm-47.4 122.908l-25.978 25.982-103.35 103.35c-3.433 3.43-7.714 5.146-12.852 5.146-5.137 0-9.42-1.718-12.847-5.147l-25.98-25.98c-3.617-3.606-5.425-7.897-5.425-12.846 0-4.942 1.81-9.227 5.425-12.847l53.962-53.954H91.363c-4.948 0-9.23-1.813-12.847-5.428-3.615-3.613-5.424-7.898-5.424-12.847V200.99c0-4.947 1.81-9.23 5.424-12.846 3.617-3.617 7.898-5.426 12.847-5.426h143.325l-53.962-53.96c-3.428-3.427-5.14-7.707-5.14-12.846 0-5.14 1.712-9.42 5.14-12.85l25.98-25.982c3.428-3.425 7.71-5.137 12.848-5.137 5.145 0 9.42 1.71 12.852 5.137l103.35 103.356 25.978 25.98c3.432 3.428 5.144 7.708 5.144 12.848 0 5.14-1.713 9.422-5.145 12.847z"/></svg>