<?xml version="1.0" encoding="utf-8"?>
<!DOCTYPE svg PUBLIC "-//W3C//DTD SVG 1.1//EN" "http://www.w3.org/Graphics/SVG/1.1/DTD/svg11.dtd">
<svg version="1.1" id="Layer_1" xmlns="http://www.w3.org/2000/svg" xmlns:xlink="http://www.w3.org/1999/xlink" x="0px" y="0px" viewBox="0 230.5 612 459" enable-background="new 0 230.5 612 459" xml:space="preserve">
<path d="M533.5,403.6c0.8-6.7,2-13.3,2-20.1c0-84.5-68.5-153-153-153c-50,0-94,24.3-121.8,61.4c-10-2.4-20.4-4.1-31.2-4.1c-74,0-133.9,59.9-133.9,133.9c0,2.2,0.5,3.9,0.6,6.1C40.8,444.1,0,494.9,0,555.6c0,74,59.9,133.9,133.9,133.9H459c84.5,0,153-68.5,153-153C612,479.2,580.1,429.9,533.5,403.6z M306,613L191.3,498.3h76.5V383.5h76.5v114.8h76.5L306,613z"/>
</svg>
