<?xml version="1.0" encoding="utf-8"?>
<!DOCTYPE svg PUBLIC "-//W3C//DTD SVG 1.1//EN" "http://www.w3.org/Graphics/SVG/1.1/DTD/svg11.dtd">
<svg version="1.1" id="Capa_1" xmlns="http://www.w3.org/2000/svg" xmlns:xlink="http://www.w3.org/1999/xlink" x="0px" y="0px"
	 viewBox="0 180.4 612 431.2" enable-background="new 0 180.4 612 431.2" xml:space="preserve">
		<path d="M303.8,417.6L586.6,189c-8.1-5.7-18.2-8.6-29.2-8.6H50.2c-11,0-21.1,2.9-29.2,8.6L303.8,417.6z"/>
		<path d="M362.2,395l239.2,193.1c6.2-8.6,10.5-19.2,10.5-30.2V232.2c0-11.5-4.8-21.6-10.5-30.2L362.2,395z"/>
		<path d="M8.6,202C2.4,210.6,0,221.1,0,232.2v325.8c0,11.5,2.4,21.6,8.6,30.2L246.9,395L8.6,202z"/>
		<path d="M346.9,407.5l-36.8,30.2c-1.9,1.4-3.8,1.9-6.2,1.9c-2.4,0-4.3-0.5-6.2-1.9l-36.8-30.2L21.1,602c8.1,5.7,18.2,9.6,29.2,9.6h507.2c11,0,21.1-3.8,29.2-9.6L346.9,407.5z"/>
</svg>
