<?xml version="1.0" encoding="utf-8"?>
<!DOCTYPE svg PUBLIC "-//W3C//DTD SVG 1.1//EN" "http://www.w3.org/Graphics/SVG/1.1/DTD/svg11.dtd">
<svg version="1.1" id="Layer_1" xmlns="http://www.w3.org/2000/svg" xmlns:xlink="http://www.w3.org/1999/xlink" x="0px" y="0px"
	 viewBox="0 169.9 612 524.9" enable-background="new 0 169.9 612 524.9" xml:space="preserve">
<path d="M599.2,357.6c-8.5-8.5-18.9-12.8-30.9-12.8l0,0V213.5c0-11.8-4.3-22.1-12.9-30.7s-18.9-12.9-30.7-12.9
	C419.6,257.3,317.6,301,218.6,301H54.7c-15.1,0-27.9,5.4-38.6,16C5.4,327.8,0,340.6,0,355.7v65.6c0,15.1,5.4,27.9,16,38.6
	c10.6,10.8,23.6,16,38.6,16h41.6c-3.8,12.3-6.3,24.9-7.5,37.7c-1.1,12.9-1.6,24-1.2,33.6c0.4,9.6,2,21.1,5.1,34.5
	c3.1,13.4,5.7,23.6,7.9,30.4c2.2,6.8,5.9,17.6,10.9,32.3c5.1,14.7,8.5,24.6,10,29.9c10.5,9.6,25.5,15.9,45.1,18.9
	c19.6,3.1,38.8,1.8,57.5-3.9c18.8-5.7,31.5-15.2,38-28.4c-8.6-6.8-15.7-12.6-21.1-17.2s-10.8-10.4-16.4-17.1s-9.5-13-11.5-18.8
	c-2-5.9-2.8-12.4-2-19.9c0.7-7.4,3.3-14.8,7.9-22.4c-8.6-8.9-13.2-19.4-13.6-31.6c-0.5-12.2,3.1-23.6,10.6-34.3
	c7.5-10.6,17.8-18.2,31.1-22.5c90,7.5,182.4,50.7,277.3,129.8c11.8,0,22.1-4.3,30.7-13c8.6-8.6,12.9-18.9,12.9-30.7v-131
	c12.1,0,22.4-4.3,30.9-12.8c8.5-8.5,12.8-18.9,12.8-30.9C612,376.4,607.8,366.1,599.2,357.6L599.2,357.6z M524.6,551
	c-89-68.1-176.4-106.9-262.3-116.5v-92.2c85.2-9.3,172.6-48.3,262.3-117.1V551z"/>
</svg>
