<?xml version="1.0" encoding="utf-8"?>
<!DOCTYPE svg PUBLIC "-//W3C//DTD SVG 1.1//EN" "http://www.w3.org/Graphics/SVG/1.1/DTD/svg11.dtd">
<svg version="1.1" id="Layer_1" xmlns="http://www.w3.org/2000/svg" xmlns:xlink="http://www.w3.org/1999/xlink" x="0px" y="0px"
	 viewBox="10.9 0 416.6 438.5" enable-background="new 10.9 0 416.6 438.5" xml:space="preserve">
<path d="M417.7,376.9L274.1,150.5V36.5h18.3c4.9,0,9.2-1.8,12.8-5.4c3.6-3.6,5.4-7.9,5.4-12.8s-1.8-9.2-5.4-12.8
	c-3.6-3.6-7.9-5.4-12.8-5.4H146.2c-5,0-9.2,1.8-12.9,5.4c-3.6,3.6-5.4,7.9-5.4,12.8s1.8,9.2,5.4,12.8c3.6,3.6,7.9,5.4,12.9,5.4h18.3
	v113.9L20.8,376.9c-10.7,16.9-12.7,31.5-6.1,43.5c6.6,12.1,19.9,18.1,40.1,18.1h328.9c20.2,0,33.5-6,40.1-18.1
	C430.4,408.3,428.4,393.8,417.7,376.9L417.7,376.9z M117.6,292.4l77.7-122.5l5.7-8.9V36.5h36.5V161l5.7,8.9l77.7,122.5L117.6,292.4
	L117.6,292.4z"/>
</svg>
