<svg xmlns="http://www.w3.org/2000/svg" width="479.79" height="479.79" viewBox="0 0 479.79 479.79"><path d="M478.41 116.617c-.37-4.27-3.182-7.94-7.2-9.403-4.03-1.472-8.54-.47-11.57 2.556l-62.016 62.01-68.75-21.767-21.767-68.748 62.016-62.016c3.035-3.033 4.025-7.544 2.563-11.566-1.477-4.03-5.137-6.837-9.417-7.207-37.664-3.245-74.567 10.202-101.248 36.887-36.542 36.545-46.22 89.91-29.083 135.4-1.874 1.577-3.722 3.25-5.545 5.052L19.385 373.152c-.072.07-.144.15-.223.22-24.345 24.345-24.345 63.958 0 88.308 24.35 24.344 63.672 24.048 88.013-.298.105-.098.2-.196.297-.305l193.632-208.62c1.765-1.774 3.404-3.63 4.95-5.533 45.5 17.167 98.9 7.513 135.473-29.056 26.675-26.687 40.13-63.593 36.882-101.25zM75.98 435.38c-8.97 8.97-23.5 8.963-32.47 0-8.967-8.96-8.967-23.502 0-32.466 8.97-8.963 23.5-8.963 32.47 0 8.967 8.964 8.967 23.505 0 32.466z"/></svg>