<svg viewBox="0 0 100 100" xmlns="http://www.w3.org/2000/svg"><symbol viewBox="137 0 219.3 493.4" id="svg-arrow_down"><title>arrow_down</title> <path d="M355.5,370.9c-1.5-3.6-4.3-5.4-8.3-5.4h-64V9.1c0-2.7-0.9-4.9-2.6-6.6c-1.7-1.7-3.9-2.6-6.6-2.6h-54.8
	c-2.7,0-4.9,0.9-6.6,2.6c-1.7,1.7-2.6,3.9-2.6,6.6v356.3h-64c-3.8,0-6.6,1.8-8.3,5.4c-1.5,3.6-1,6.9,1.4,10l101.4,109.6
	c1.9,1.9,4.2,2.9,6.9,2.9c2.5,0,4.7-0.9,6.6-2.9L354,380.9C356.5,377.8,357,374.5,355.5,370.9L355.5,370.9z"/> </symbol><symbol viewBox="0 0 438.533 438.533" id="svg-arrow-circle"><title>arrow-circle</title><path d="M409.133 109.203c-19.608-33.592-46.205-60.19-79.798-79.796C295.735 9.8 259.058 0 219.273 0c-39.78 0-76.47 9.8-110.063 29.407-33.595 19.604-60.192 46.2-79.8 79.796C9.8 142.8 0 179.49 0 219.267c0 39.78 9.804 76.463 29.407 110.062 19.607 33.59 46.204 60.188 79.8 79.797 33.596 19.605 70.282 29.407 110.062 29.407s76.47-9.802 110.064-29.407c33.593-19.602 60.19-46.206 79.795-79.798 19.602-33.597 29.402-70.285 29.402-110.063 0-39.782-9.8-76.472-29.4-110.064zm-47.4 122.908l-25.978 25.982-103.35 103.35c-3.433 3.43-7.714 5.146-12.852 5.146-5.137 0-9.42-1.718-12.847-5.147l-25.98-25.98c-3.617-3.606-5.425-7.897-5.425-12.846 0-4.942 1.81-9.227 5.425-12.847l53.962-53.954H91.363c-4.948 0-9.23-1.813-12.847-5.428-3.615-3.613-5.424-7.898-5.424-12.847V200.99c0-4.947 1.81-9.23 5.424-12.846 3.617-3.617 7.898-5.426 12.847-5.426h143.325l-53.962-53.96c-3.428-3.427-5.14-7.707-5.14-12.846 0-5.14 1.712-9.42 5.14-12.85l25.98-25.982c3.428-3.425 7.71-5.137 12.848-5.137 5.145 0 9.42 1.71 12.852 5.137l103.35 103.356 25.978 25.98c3.432 3.428 5.144 7.708 5.144 12.848 0 5.14-1.713 9.422-5.145 12.847z"/></symbol><symbol viewBox="0 0 96.124 96.123" id="svg-facebook"><title>facebook</title><path d="M72.09.02L59.623 0C45.62 0 36.57 9.285 36.57 23.656v10.907H24.037c-1.083 0-1.96.878-1.96 1.96v15.804c0 1.083.878 1.96 1.96 1.96H36.57v39.876c0 1.083.877 1.96 1.96 1.96h16.352c1.083 0 1.96-.878 1.96-1.96V54.287h14.654c1.083 0 1.96-.877 1.96-1.96l.006-15.803c0-.52-.207-1.018-.574-1.386-.367-.368-.867-.575-1.387-.575H56.843v-9.246c0-4.444 1.06-6.7 6.848-6.7l8.397-.003c1.082 0 1.96-.878 1.96-1.96V1.98c0-1.08-.877-1.958-1.958-1.96z"/></symbol><symbol viewBox="0 22.7 548.2 502.8" id="svg-gears_mod"><title>gears_mod</title> <path d="M333.2,376.4c0-1.9-0.7-3.8-2-5.7C320.5,358,312,347,305.5,337.9c4-7.8,7-15,9.1-21.7l44.3-6.9c1.7-0.2,3.2-1.2,4.6-3
	c1.3-1.8,2-3.7,2-5.6V248c0-2.1-0.7-3.9-2-5.6s-3-2.6-4.9-3l-43.4-6.6c-2.1-6.5-5.3-14.3-9.7-23.4c2.9-4.2,7.1-9.9,12.9-17.1
	c5.7-7.2,9.7-12.4,12-15.4c1.3-1.9,2-3.7,2-5.4c0-5.1-13.7-20.4-41.1-45.7c-1.9-1.5-3.9-2.3-6-2.3c-2.3,0-4.2,0.7-5.7,2l-33.7,25.4
	c-7.8-4-14.9-6.9-21.4-8.9l-6.6-43.7c-0.2-1.9-1.1-3.6-2.9-5c-1.7-1.4-3.6-2.1-5.7-2.1h-53.1c-4.4,0-7.2,2.3-8.6,6.8
	c-2.3,8.8-4.5,23.4-6.6,44c-8.2,2.7-15.5,5.7-22,9.1l-32.8-25.7c-1.9-1.3-3.9-2-6-2c-3.6,0-11.1,5.6-22.6,16.8
	c-11.4,11.2-19.2,19.7-23.4,25.4c-1.3,1.5-2,3.4-2,5.7c0,1.7,0.7,3.6,2,5.7C44.9,189.9,53.5,200.9,60,210c-4,7.8-7,15-9.1,21.7
	l-44.3,6.8c-1.7,0.2-3.2,1.2-4.6,3c-1.3,1.8-2,3.7-2,5.6v52.8c0,2.1,0.7,3.9,2,5.6c1.3,1.6,3,2.5,4.9,2.7l43.4,6.9
	c2.3,7.2,5.6,15,10,23.4c-3,4.2-7.5,10-13.4,17.4c-5.9,7.4-9.8,12.5-11.7,15.1c-1.3,1.9-2,3.7-2,5.4c0,5.1,13.7,20.4,41.1,45.7
	c1.9,1.5,3.9,2.3,6,2.3c2.5,0,4.4-0.7,5.7-2l33.7-25.4c7.8,4,14.9,6.9,21.4,8.8l6.6,43.7c0.2,1.9,1.1,3.6,2.9,5
	c1.7,1.4,3.6,2.1,5.7,2.1h53.1c4.4,0,7.2-2.3,8.6-6.9c2.3-9,4.5-23.7,6.6-44.3c7.6-2.3,14.9-5.2,22-8.8l32.8,25.7c1.9,1.3,3.9,2,6,2
	c3.6,0,11.1-5.7,22.4-17c11.3-11.3,19.2-19.8,23.6-25.5C332.5,380.5,333.2,378.7,333.2,376.4L333.2,376.4z M234.4,325.6
	c-14.3,14.3-31.5,21.4-51.7,21.4c-20.2,0-37.4-7.1-51.7-21.4c-14.3-14.3-21.4-31.5-21.4-51.7c0-20.2,7.1-37.4,21.4-51.7
	c14.3-14.3,31.5-21.4,51.7-21.4c20.2,0,37.4,7.1,51.7,21.4c14.3,14.3,21.4,31.5,21.4,51.7C255.8,294.1,248.7,311.3,234.4,325.6
	L234.4,325.6z M505.6,391.3c-2.5-5.5-5.3-10.5-8.6-14.8c9.7-21.5,14.6-34.6,14.6-39.4c0-0.8-0.4-1.4-1.1-2
	c-22.8-13.3-34.6-20-35.4-20l-1.7,0.6c-7.8,7.8-16.6,18.5-26.3,32c-3.8-0.4-6.7-0.6-8.6-0.6c-1.9,0-4.8,0.2-8.6,0.6
	c-2.7-4-7.6-10.4-14.8-19.3c-7.2-8.8-11.6-13.3-13.1-13.3c-0.4,0-3.2,1.5-8.6,4.6c-5.3,3-10.9,6.3-16.8,9.7c-5.9,3.4-9.2,5.3-10,5.7
	c-0.8,0.6-1.1,1.2-1.1,2c0,4.8,4.9,17.9,14.6,39.4c-3.2,4.4-6.1,9.3-8.6,14.8c-28.4,2.9-42.5,5.8-42.5,8.9v40c0,3,14.2,6,42.5,8.9
	c2.3,5.1,5.1,10.1,8.6,14.8c-9.7,21.5-14.6,34.6-14.6,39.4c0,0.8,0.4,1.4,1.1,2c23.2,13.5,35,20.3,35.4,20.3
	c1.5,0,5.9-4.5,13.1-13.4c7.2-8.9,12.2-15.4,14.8-19.4c3.8,0.4,6.7,0.6,8.6,0.6c1.9,0,4.8-0.2,8.6-0.6c2.7,4,7.6,10.5,14.8,19.4
	c7.2,8.9,11.6,13.4,13.1,13.4c0.4,0,12.2-6.8,35.4-20.3c0.8-0.6,1.1-1.2,1.1-2c0-4.8-4.9-17.9-14.6-39.4c3.4-4.8,6.3-9.7,8.6-14.8
	c28.4-2.9,42.5-5.8,42.5-8.9v-40C548.2,397.1,534,394.1,505.6,391.3L505.6,391.3z M464.4,446c-7.1,7.1-15.7,10.7-25.8,10.7
	c-10.1,0-18.7-3.6-25.8-10.7c-7.1-7.1-10.7-15.7-10.7-25.8c0-9.9,3.6-18.5,10.9-25.7c7.2-7.2,15.8-10.9,25.7-10.9
	c9.9,0,18.5,3.6,25.7,10.9c7.2,7.2,10.9,15.8,10.9,25.7C475.1,430.2,471.5,438.8,464.4,446L464.4,446z M505.6,98.9
	c-2.5-5.5-5.3-10.5-8.6-14.8c9.7-21.5,14.6-34.6,14.6-39.4c0-0.8-0.4-1.4-1.1-2c-22.8-13.3-34.6-20-35.4-20l-1.7,0.6
	c-7.8,7.8-16.6,18.5-26.3,32c-3.8-0.4-6.7-0.6-8.6-0.6c-1.9,0-4.8,0.2-8.6,0.6c-2.7-4-7.6-10.4-14.8-19.3
	c-7.2-8.9-11.6-13.3-13.1-13.3c-0.4,0-3.2,1.5-8.6,4.6c-5.3,3-10.9,6.3-16.8,9.7c-5.9,3.4-9.2,5.3-10,5.7c-0.8,0.6-1.1,1.2-1.1,2
	c0,4.8,4.9,17.9,14.6,39.4c-3.2,4.4-6.1,9.3-8.6,14.8c-28.4,2.9-42.5,5.8-42.5,8.8v40c0,3,14.2,6,42.5,8.9
	c2.3,5.1,5.1,10.1,8.6,14.8c-9.7,21.5-14.6,34.6-14.6,39.4c0,0.8,0.4,1.4,1.1,2c23.2,13.5,35,20.3,35.4,20.3
	c1.5,0,5.9-4.5,13.1-13.4c7.2-8.9,12.2-15.4,14.8-19.4c3.8,0.4,6.7,0.6,8.6,0.6c1.9,0,4.8-0.2,8.6-0.6c2.7,4,7.6,10.5,14.8,19.4
	c7.2,8.9,11.6,13.4,13.1,13.4c0.4,0,12.2-6.8,35.4-20.3c0.8-0.6,1.1-1.2,1.1-2c0-4.8-4.9-17.9-14.6-39.4c3.4-4.8,6.3-9.7,8.6-14.8
	c28.4-2.9,42.5-5.8,42.5-8.8v-40C548.2,104.7,534,101.8,505.6,98.9L505.6,98.9z M464.4,153.6c-7.1,7.1-15.7,10.7-25.8,10.7
	c-10.1,0-18.7-3.6-25.8-10.7c-7.1-7.1-10.7-15.8-10.7-25.8c0-9.9,3.6-18.5,10.9-25.7c7.2-7.2,15.8-10.8,25.7-10.8
	c9.9,0,18.5,3.6,25.7,10.8c7.2,7.2,10.9,15.8,10.9,25.7C475.1,137.9,471.5,146.5,464.4,153.6L464.4,153.6z"/> </symbol><symbol viewBox="0 0 475.092 475.092" id="svg-google_plus"><title>google_plus</title><path d="M273.372 302.498c-5.04-6.762-10.608-13.045-16.7-18.842-6.09-5.804-12.183-11.088-18.27-15.845-6.093-4.756-11.66-9.328-16.703-13.708-5.043-4.374-9.136-8.945-12.276-13.702-3.14-4.757-4.71-9.61-4.71-14.558 0-6.855 2.19-13.278 6.566-19.274 4.377-5.996 9.707-11.8 15.986-17.417 6.28-5.616 12.56-11.752 18.844-18.414 6.276-6.665 11.604-15.465 15.985-26.412 4.373-10.944 6.563-23.458 6.563-37.542 0-16.75-3.713-32.835-11.136-48.25-7.423-15.418-17.89-27.412-31.405-35.976h38.54L303.2 0H178.44c-17.698 0-35.497 1.906-53.383 5.72-26.453 5.9-48.723 19.368-66.806 40.397-18.08 21.033-27.12 44.873-27.12 71.52 0 28.17 10.137 51.583 30.405 70.233 20.27 18.65 44.585 27.978 72.945 27.978 5.71 0 12.37-.478 19.985-1.427-.38 1.522-1.043 3.568-1.997 6.137s-1.715 4.62-2.286 6.14c-.57 1.52-1.047 3.375-1.425 5.566-.382 2.19-.57 4.428-.57 6.71 0 12.563 6.085 26.744 18.27 42.54-14.465.388-28.737 1.67-42.825 3.86-14.084 2.19-28.833 5.617-44.252 10.28-15.417 4.662-29.217 11.42-41.396 20.27-12.182 8.855-21.317 19.367-27.408 31.55C3.533 361.56.01 374.405.01 386.017c0 12.75 2.857 24.314 8.565 34.69 5.708 10.37 13.035 18.842 21.982 25.406 8.945 6.57 19.273 12.083 30.978 16.562 11.704 4.47 23.315 7.66 34.83 9.562 11.515 1.903 22.887 2.854 34.118 2.854 51.007 0 90.98-12.463 119.91-37.396 26.647-23.223 39.97-50.062 39.97-80.517 0-10.855-1.57-20.984-4.712-30.41-3.14-9.43-7.23-17.513-12.278-24.27zm-110.06-103.776c-9.708 0-18.938-2.475-27.695-7.426-8.757-4.95-16.18-11.374-22.27-19.273-6.088-7.898-11.418-16.796-15.987-26.695-4.567-9.896-7.944-19.792-10.135-29.692-2.19-9.895-3.284-19.318-3.284-28.265 0-18.27 4.855-33.973 14.563-47.107 9.705-13.134 23.41-19.7 41.112-19.7 12.563 0 23.935 3.898 34.118 11.703 10.183 7.804 18.177 17.7 23.984 29.692 5.802 11.99 10.277 24.407 13.417 37.257 3.14 12.847 4.71 24.983 4.71 36.403 0 19.036-4.138 34.317-12.418 45.833-8.282 11.514-21.65 17.272-40.115 17.272zm78.94 214.4c-5.23 8.95-12.32 15.94-21.268 20.982-8.946 5.048-18.51 8.758-28.693 11.14-10.182 2.385-20.888 3.572-32.12 3.572-12.18 0-24.27-1.43-36.257-4.284-11.99-2.85-23.46-7.187-34.403-12.99-10.944-5.8-19.795-13.8-26.55-23.983-6.758-10.185-10.136-21.745-10.136-34.69 0-11.42 2.568-21.602 7.708-30.55 5.142-8.946 11.71-16.085 19.702-21.41 7.994-5.33 17.32-9.712 27.98-13.13 10.66-3.433 20.936-5.808 30.832-7.14 9.895-1.334 19.985-1.994 30.262-1.994 6.283 0 11.043.19 14.277.567 1.143.767 4.043 2.76 8.708 5.996s7.804 5.427 9.423 6.57c1.615 1.136 4.567 3.325 8.85 6.562 4.28 3.237 7.327 5.66 9.135 7.28 1.804 1.617 4.422 4.044 7.85 7.278 3.424 3.237 5.948 6.043 7.566 8.422 1.615 2.378 3.616 5.28 5.996 8.702 2.38 3.433 4.043 6.715 4.998 9.855.948 3.14 1.854 6.566 2.707 10.276.855 3.72 1.283 7.57 1.283 11.57.005 11.987-2.613 22.456-7.85 31.397z"/><path d="M401.998 73.09V0h-36.55v73.09h-73.09v36.546h73.09v73.09H402v-73.09h73.083V73.09"/></symbol><symbol viewBox="0 54.8 511.6 402" id="svg-letter"><title>letter</title> <path d="M49.1,178.7c6.5,4.6,26,18.1,58.5,40.7s57.5,39.9,74.8,52.1c1.9,1.3,5.9,4.2,12.1,8.7c6.2,4.5,11.3,8.1,15.4,10.9
	c4.1,2.8,9,5.9,14.9,9.3c5.8,3.4,11.3,6,16.4,7.7c5.1,1.7,9.9,2.6,14.3,2.6h0.6c4.4,0,9.1-0.9,14.3-2.6c5.1-1.7,10.6-4.3,16.4-7.7
	c5.8-3.4,10.8-6.5,14.8-9.3c4.1-2.8,9.2-6.4,15.4-10.9c6.2-4.5,10.2-7.4,12.1-8.7c17.5-12.2,62.1-43.1,133.6-92.8
	c13.9-9.7,25.5-21.4,34.8-35.1c9.3-13.7,14-28.1,14-43.1c0-12.6-4.5-23.3-13.6-32.3c-9-8.9-19.7-13.4-32.1-13.4H45.7
	c-14.7,0-25.9,4.9-33.8,14.8C4,79.6,0,91.9,0,106.8c0,12,5.2,25,15.7,39C26.2,159.7,37.3,170.7,49.1,178.7L49.1,178.7z"/> <path d="M483.1,209.3c-62.4,42.3-109.8,75.1-142.2,98.5c-10.9,8-19.6,14.2-26.4,18.7c-6.8,4.5-15.7,9-27,13.7
	c-11.2,4.7-21.7,7-31.4,7h-0.6c-9.7,0-20.2-2.3-31.4-7c-11.2-4.7-20.2-9.2-27-13.7c-6.8-4.5-15.6-10.7-26.4-18.7
	c-25.7-18.8-73-51.7-141.9-98.5C18,202,8.4,193.8,0,184.4v226.7c0,12.6,4.5,23.3,13.4,32.3c8.9,9,19.7,13.4,32.3,13.4h420.3
	c12.6,0,23.3-4.5,32.3-13.4c9-9,13.4-19.7,13.4-32.3V184.4C503.4,193.6,493.9,201.9,483.1,209.3L483.1,209.3z"/> </symbol><symbol viewBox="0 9.6 430.1 411" id="svg-linkedin"><title>linkedin</title> <path d="M430.1,261.5v159h-92.2V272.2c0-37.3-13.3-62.7-46.7-62.7c-25.5,0-40.6,17.1-47.3,33.7c-2.4,5.9-3.1,14.2-3.1,22.5v154.9
	h-92.2c0,0,1.2-251.3,0-277.3h92.2v39.3c-0.2,0.3-0.4,0.6-0.6,0.9h0.6v-0.9c12.3-18.9,34.1-45.8,83.1-45.8
	C384.6,136.7,430.1,176.4,430.1,261.5L430.1,261.5z M52.2,9.6C20.6,9.6,0,30.3,0,57.5c0,26.6,20,47.9,51,47.9h0.6
	c32.2,0,52.2-21.3,52.2-47.9C103.1,30.3,83.7,9.6,52.2,9.6z M5.5,420.6h92.2V143.2H5.5L5.5,420.6L5.5,420.6z"/> </symbol><symbol viewBox="0 0 314.014 314.015" id="svg-monitor"><title>monitor</title><path d="M282.612 0H31.402C14.062 0 0 14.052 0 31.402v204.11c0 17.34 14.06 31.398 31.402 31.398h78.503l-10.733 32.216c-2.745 8.22 2.065 14.888 10.733 14.888h94.205c8.664 0 13.477-6.67 10.73-14.888l-10.73-32.216h78.5c17.346 0 31.403-14.06 31.403-31.398V31.402c0-17.35-14.056-31.402-31.4-31.402zm0 204.11H31.402V31.402h251.21V204.11z"/></symbol><symbol viewBox="0 169.9 612 524.9" id="svg-speaker"><title>speaker</title> <path d="M599.2,357.6c-8.5-8.5-18.9-12.8-30.9-12.8l0,0V213.5c0-11.8-4.3-22.1-12.9-30.7s-18.9-12.9-30.7-12.9
	C419.6,257.3,317.6,301,218.6,301H54.7c-15.1,0-27.9,5.4-38.6,16C5.4,327.8,0,340.6,0,355.7v65.6c0,15.1,5.4,27.9,16,38.6
	c10.6,10.8,23.6,16,38.6,16h41.6c-3.8,12.3-6.3,24.9-7.5,37.7c-1.1,12.9-1.6,24-1.2,33.6c0.4,9.6,2,21.1,5.1,34.5
	c3.1,13.4,5.7,23.6,7.9,30.4c2.2,6.8,5.9,17.6,10.9,32.3c5.1,14.7,8.5,24.6,10,29.9c10.5,9.6,25.5,15.9,45.1,18.9
	c19.6,3.1,38.8,1.8,57.5-3.9c18.8-5.7,31.5-15.2,38-28.4c-8.6-6.8-15.7-12.6-21.1-17.2s-10.8-10.4-16.4-17.1s-9.5-13-11.5-18.8
	c-2-5.9-2.8-12.4-2-19.9c0.7-7.4,3.3-14.8,7.9-22.4c-8.6-8.9-13.2-19.4-13.6-31.6c-0.5-12.2,3.1-23.6,10.6-34.3
	c7.5-10.6,17.8-18.2,31.1-22.5c90,7.5,182.4,50.7,277.3,129.8c11.8,0,22.1-4.3,30.7-13c8.6-8.6,12.9-18.9,12.9-30.7v-131
	c12.1,0,22.4-4.3,30.9-12.8c8.5-8.5,12.8-18.9,12.8-30.9C612,376.4,607.8,366.1,599.2,357.6L599.2,357.6z M524.6,551
	c-89-68.1-176.4-106.9-262.3-116.5v-92.2c85.2-9.3,172.6-48.3,262.3-117.1V551z"/> </symbol><symbol viewBox="10.9 0 416.6 438.5" id="svg-tool"><title>tool</title> <path d="M417.7,376.9L274.1,150.5V36.5h18.3c4.9,0,9.2-1.8,12.8-5.4c3.6-3.6,5.4-7.9,5.4-12.8s-1.8-9.2-5.4-12.8
	c-3.6-3.6-7.9-5.4-12.8-5.4H146.2c-5,0-9.2,1.8-12.9,5.4c-3.6,3.6-5.4,7.9-5.4,12.8s1.8,9.2,5.4,12.8c3.6,3.6,7.9,5.4,12.9,5.4h18.3
	v113.9L20.8,376.9c-10.7,16.9-12.7,31.5-6.1,43.5c6.6,12.1,19.9,18.1,40.1,18.1h328.9c20.2,0,33.5-6,40.1-18.1
	C430.4,408.3,428.4,393.8,417.7,376.9L417.7,376.9z M117.6,292.4l77.7-122.5l5.7-8.9V36.5h36.5V161l5.7,8.9l77.7,122.5L117.6,292.4
	L117.6,292.4z"/> </symbol><symbol viewBox="0 0 612 612" id="svg-twitter"><title>twitter</title><path d="M612 116.258c-22.525 9.98-46.694 16.75-72.088 19.772 25.93-15.527 45.777-40.155 55.184-69.41-24.322 14.378-51.17 24.82-79.775 30.48-22.906-24.438-55.49-39.66-91.63-39.66-69.333 0-125.55 56.218-125.55 125.514 0 9.828 1.11 19.427 3.25 28.606-104.325-5.24-196.834-55.223-258.75-131.174-10.822 18.51-16.98 40.078-16.98 63.1 0 43.56 22.182 81.994 55.836 104.48-20.575-.688-39.926-6.348-56.867-15.756v1.568c0 60.806 43.29 111.554 100.692 123.104-10.517 2.83-21.607 4.398-33.08 4.398-8.107 0-15.947-.803-23.634-2.333 15.985 49.907 62.336 86.2 117.253 87.194-42.946 33.655-97.098 53.656-155.915 53.656-10.134 0-20.116-.612-29.944-1.72 55.568 35.68 121.537 56.484 192.44 56.484 230.947 0 357.187-191.29 357.187-357.188l-.42-16.253C573.87 163.525 595.21 141.42 612 116.257z" fill="#010002"/></symbol></svg>